PathFileType	4	(X/Y/Z)	Kaydara	
DataRate	CameraRate	NumFrames	NumMarkers	Units	OrigDataRate	OrigDataStartFrame	OrigNumFrames	
120.00	120.00	4	72	mm	120.00	1	261	
Frame#	Time	Hips			RightUpLeg			RightLeg			RightFoot			RightFoot_End			LeftUpLeg			LeftLeg			LeftFoot			LeftFoot_End			Spine			Spine1			Spine2			Spine3			Neck			Head			Head_End			RightShoulder			RightArm			RightForeArm			RightHand			RightHandThumb1			RightHandThumb2			RightHandThumb3			RightHandThumb3_End			RightInHandIndex			RightHandIndex1			RightHandIndex2			RightHandIndex3			RightHandIndex3_End			RightInHandMiddle			RightHandMiddle1			RightHandMiddle2			RightHandMiddle3			RightHandMiddle3_End			RightInHandRing			RightHandRing1			RightHandRing2			RightHandRing3			RightHandRing3_End			RightInHandPinky			RightHandPinky1			RightHandPinky2			RightHandPinky3			RightHandPinky3_End			LeftShoulder			LeftArm			LeftForeArm			LeftHand			LeftHandThumb1			LeftHandThumb2			LeftHandThumb3			LeftHandThumb3_End			LeftInHandIndex			LeftHandIndex1			LeftHandIndex2			LeftHandIndex3			LeftHandIndex3_End			LeftInHandMiddle			LeftHandMiddle1			LeftHandMiddle2			LeftHandMiddle3			LeftHandMiddle3_End			LeftInHandRing			LeftHandRing1			LeftHandRing2			LeftHandRing3			LeftHandRing3_End			LeftInHandPinky			LeftHandPinky1			LeftHandPinky2			LeftHandPinky3			LeftHandPinky3_End			
		X1	Y1	Z1	X2	Y2	Z2	X3	Y3	Z3	X4	Y4	Z4	X5	Y5	Z5	X6	Y6	Z6	X7	Y7	Z7	X8	Y8	Z8	X9	Y9	Z9	X10	Y10	Z10	X11	Y11	Z11	X12	Y12	Z12	X13	Y13	Z13	X14	Y14	Z14	X15	Y15	Z15	X16	Y16	Z16	X17	Y17	Z17	X18	Y18	Z18	X19	Y19	Z19	X20	Y20	Z20	X21	Y21	Z21	X22	Y22	Z22	X23	Y23	Z23	X24	Y24	Z24	X25	Y25	Z25	X26	Y26	Z26	X27	Y27	Z27	X28	Y28	Z28	X29	Y29	Z29	X30	Y30	Z30	X31	Y31	Z31	X32	Y32	Z32	X33	Y33	Z33	X34	Y34	Z34	X35	Y35	Z35	X36	Y36	Z36	X37	Y37	Z37	X38	Y38	Z38	X39	Y39	Z39	X40	Y40	Z40	X41	Y41	Z41	X42	Y42	Z42	X43	Y43	Z43	X44	Y44	Z44	X45	Y45	Z45	X46	Y46	Z46	X47	Y47	Z47	X48	Y48	Z48	X49	Y49	Z49	X50	Y50	Z50	X51	Y51	Z51	X52	Y52	Z52	X53	Y53	Z53	X54	Y54	Z54	X55	Y55	Z55	X56	Y56	Z56	X57	Y57	Z57	X58	Y58	Z58	X59	Y59	Z59	X60	Y60	Z60	X61	Y61	Z61	X62	Y62	Z62	X63	Y63	Z63	X64	Y64	Z64	X65	Y65	Z65	X66	Y66	Z66	X67	Y67	Z67	X68	Y68	Z68	X69	Y69	Z69	X70	Y70	Z70	X71	Y71	Z71	X72	Y72	Z72	

1	0.0	3081.203	893.81699	129.612	3145.8871171381284	887.774199829906	74.54856183955977	3062.121036940229	488.0440378841476	-16.569297155245668	3046.4725180257115	106.62565135524544	-71.54063494013732	2938.909519054911	28.56015797544942	63.634299953459475	3031.4142165471553	875.0268420530663	198.01890000910302	2932.2875405399914	481.37664102261374	300.635049485826	2834.920440848862	65.45313967166886	403.9475527666847	2687.7476793538153	-1.7281660834272052	303.9710633017765	3014.9028086724647	1009.5726059251286	79.14364125978781	2951.8693701008665	1066.2182836550403	32.357411149636135	2882.035661238656	1118.3025908124832	-18.307415909252928	2809.455738119263	1156.4549801144358	-69.39021478290928	2731.1808261550127	1199.0279100973848	-121.78542816237677	2657.367809044577	1235.8692476650313	-166.68617050072405	2518.9944867728427	1314.7426612590218	-173.68359908767513	2772.4380877131357	1184.6848635286726	-125.58074976268645	2814.6581114594283	1159.5596757542153	-208.80792196472507	2844.202292368883	942.5870704840103	-182.61217778171232	2892.504065665428	754.0213332425172	-174.7280851310434	2881.2727528517435	741.1027491568517	-193.14879842481648	2864.9936797104983	723.2021687359996	-193.34667195772312	2855.892789582164	709.1195762332143	-190.68118298899034	2850.218488698679	695.996541989454	-186.06094491297895	2889.372598528238	733.8162995651353	-185.9875667922001	2888.0488120530104	698.2660245696312	-187.6099530364493	2881.1698684344497	675.1610500334335	-182.34122176480588	2871.9044451924965	665.7693464715819	-177.71154535978397	2860.8703686402696	661.3500458605992	-172.9661769434285	2895.2166668441687	730.734372058959	-178.00251361956242	2897.0882456572244	694.3922188867518	-175.26764912510325	2890.349914620333	668.890798802977	-168.45154576270812	2879.5400312722013	657.4212451698738	-162.35405105152415	2867.6458940563657	652.5182503097269	-156.9128765648569	2899.4541311526505	729.4299370866688	-172.36663500564967	2905.028846228367	695.627597299878	-165.16068890299763	2899.9368523971502	673.1624189570762	-158.13309711661122	2889.92469291821	661.9727246201127	-151.67450234618823	2878.937776536836	657.3027818268217	-146.28496080956543	2903.786769433395	729.2261537584496	-165.4540357847077	2911.8216454001954	697.9708499956866	-154.74128955670116	2908.9380012960087	679.7578594362684	-147.44963185818213	2902.212587536975	671.4878355981502	-141.9336695896295	2892.8123186242055	667.2887483798339	-136.69609683422613	2741.590815674723	1183.7128639591467	-82.90678067577132	2715.273556828349	1138.9244475625799	4.246822696660063	2846.2369952012546	966.8010300138812	-64.1116463746838	2951.5828758781986	809.4224536733295	-131.9621449579771	2948.167649159636	805.4662337749579	-156.87988682242042	2966.5261582784456	799.718711043503	-172.218198127252	2981.7047034330276	793.5133593507832	-180.3380426813709	2996.4061226164135	786.4558180540672	-184.9156846853517	2955.0002862589804	796.5270453740844	-150.49995433883538	2975.315755871204	771.5934070998474	-167.0896046178935	2997.1168924230205	757.873604668563	-175.87207568167696	3011.350923158533	755.0664925577063	-180.61538513851067	3023.591299415128	756.6030423935838	-184.05796417961577	2961.167865882217	791.5763070903056	-142.82366652523646	2984.316820278371	764.5778987779213	-154.85339113222037	3008.8636718946027	749.0390380330351	-163.36667944260972	3026.3999962536745	745.3798987126473	-168.57578759635422	3039.9698896216078	746.9287091624258	-172.09294099105495	2964.948712294495	788.6586506603404	-136.9916267703125	2988.806791067264	761.7654074008436	-142.75275499254005	3010.9402920410216	747.6844732120135	-149.06006517501365	3028.247593603356	743.8696674972563	-153.49364930013982	3041.192531660888	745.1907674483356	-156.5205884564684	2969.175677260436	786.4612400948239	-129.67422572011094	2993.475593335461	760.2434799368996	-130.50150592091927	3012.2476180729964	748.2475806533976	-133.79068456050595	3025.378752445793	745.1165624281805	-136.17246618768766	3037.1377136019905	746.086280942085	-138.3634573354804
2	0.008	3081.203	893.81699	129.612	3146.4316069874526	888.1044957342881	74.80065069997131	3062.185183739901	488.40827077234286	-16.034898229624773	3046.0647249816748	106.71457958432093	-70.30790714560953	2938.2783358531537	28.857303455393712	64.91917702070617	3030.8520732063785	874.6883259557436	197.7746319951039	2931.6226067010407	481.14853258785405	300.70990760339004	2834.052250612868	65.54553176399834	404.9648173523438	2686.9038974725872	-1.3875178257458574	304.8186022527098	3014.9099185618775	1009.5951906610575	79.14961979992835	2951.929126993249	1066.290182921079	32.338641895617066	2882.165423316726	1118.4408915674396	-18.370417511328146	2809.6835346194407	1156.69058250321	-69.5398460262061	2731.4978239248485	1199.3604692557876	-122.01027171615145	2657.6704328602646	1236.21442814377	-166.9078961480899	2519.282214416012	1315.0575484239614	-174.01484705786086	2772.90461234469	1185.2800360051922	-125.72882066809522	2815.8043634482174	1161.278256196988	-209.07388940442826	2846.320620792965	944.0915806109127	-184.79008766965546	2896.310048185899	756.4788616049245	-178.54662182636946	2885.2104210060056	743.8285684526751	-196.9822788185159	2869.0110092976756	726.1803826874823	-197.4636466410976	2859.9664629586987	712.2581085127704	-195.02010694637025	2854.339871097613	699.2555104704663	-190.60587839391565	2893.3334972868834	736.5123392176732	-189.89188494799836	2892.2148117860315	701.2650271201938	-191.8162405125418	2885.4356008903833	678.3656342327652	-186.85618788614542	2876.191959665735	669.0879347641214	-182.42909733126936	2865.148782945056	664.7536819288488	-177.85861396682685	2899.1707354066793	733.377600739777	-181.96770892671805	2901.238679990721	697.3023845677717	-179.56027486264608	2894.6075579103963	672.0173364159882	-173.08817935683894	2883.8231768070636	660.6815057958542	-167.2385413393525	2871.9187042200942	655.8697123986601	-161.99039455847736	2903.39862248241	732.0281356574039	-176.36635327844778	2909.142421726648	698.4259715958251	-169.48153658796366	2904.141901193099	676.140831462876	-162.76061013803667	2894.153293245362	665.0755802237176	-156.54471755293383	2883.156163063785	660.4892368242446	-151.33838973446532	2907.7104766728717	731.7635771598801	-169.4909414187871	2915.8893087533934	700.6545467750472	-159.09314022044373	2913.0750951176647	682.5715042978991	-152.05630506712794	2906.365015893776	674.3853714882199	-146.72184866043239	2896.9546372109726	670.256381558358	-141.64915072864076	2741.702568024678	1183.7116265106954	-83.17506121893705	2714.8058098820516	1138.0522974815517	3.551732180851901	2846.869879349093	967.1213108716846	-65.75822688974031	2953.850760598284	811.0650797691502	-134.4844807377887	2950.727743685227	807.4159774359218	-159.35012045698136	2969.34681841079	801.8637950420123	-174.46836270530565	2984.7013128784115	795.7762950800102	-182.4591179817407	2999.544699646542	788.8014443991308	-186.9498191541819	2957.574045707086	798.4503176818603	-153.07699176806346	2978.30794606428	773.8324959608043	-169.73182627954017	3000.3649926595717	760.2761829887961	-178.42639823796546	3014.7107785422095	757.5301204489898	-183.01716916109217	3027.01171910039	759.0898221195499	-186.26745954603692	2963.7104005120714	793.4364533466545	-145.45783391854334	2987.250600270787	766.7119535314137	-157.58207694033413	3012.0711785995313	751.3420673808234	-166.00660998607697	3029.739683019851	747.7520604314656	-171.03512152242092	3043.3745559696627	749.3240039600126	-174.34354755200488	2967.4589143373405	790.4666519665378	-139.66601873647713	2991.6407466310834	763.7751318558921	-145.55122864165187	3014.0065648322743	749.8314073741387	-151.78833357415928	3031.438036693688	746.077936453212	-156.05151477854287	3044.4424944994453	747.4182521215873	-158.8839974243168	2971.633297610997	788.1959342356729	-132.38108296595684	2996.1992381305745	762.1198305907391	-133.34732000931393	3015.146106493712	750.2172095756712	-136.59088627658477	3028.362398186351	747.1229031412721	-138.85350669837692	3040.170970984014	748.1050245915402	-140.87519412654427
3	0.017	3081.203	893.81699	129.612	3146.979584448692	888.430536719582	75.0579004156328	3062.269344372614	488.77282923315255	-15.52922191535699	3045.6252793332606	106.80418505606828	-69.09772223967475	2937.617848860766	29.153550574659526	66.18171236212393	3030.2854535573706	874.3546390716513	197.52707583189206	2930.967081586602	480.9173664780558	300.7678787702821	2833.1321341386474	65.64623083714443	405.9675633945099	2685.992244405624	-1.0154851232944624	305.6601153900959	3014.9209109576227	1009.6155171293125	79.14691690389456	2951.988687613662	1066.3513591958922	32.30775613638994	2882.2883971256006	1118.5569389380887	-18.446653038557443	2809.8941706146397	1156.887614464798	-69.69752005457262	2731.7876144440265	1199.638211856573	-122.23870542273025	2657.94086719061	1236.4940652053915	-167.13214177457814	2519.5457528993825	1315.3177793786822	-174.3701788846884	2773.341231238347	1185.814274298389	-125.88151844138564	2816.9477907467194	1162.9886465399084	-209.3539439064569	2848.476932886786	945.5955939612677	-186.9870482015002	2900.1857513837667	758.9231325938351	-182.40248194314435	2889.2356479089112	746.5450041982396	-200.87665803412645	2873.1216189936417	729.1357963583439	-201.66476472347048	2864.1358426320057	715.3635204614876	-199.45770264094114	2858.5576495284768	702.4719192640973	-195.26017622894264	2897.379014324653	739.1973411756765	-193.85318657111964	2896.478051032512	704.2462966847179	-196.1039726636522	2889.8019695079392	681.5398547273256	-191.4703224726117	2880.5795552875475	672.3652465178344	-187.25667477538371	2869.525020269304	668.1049446702176	-182.86995339317534	2903.2044890596476	736.0069889797905	-185.98455718473232	2905.4784428829494	700.1906655299737	-183.92552903120693	2898.9575375626428	675.1078487058215	-177.8159998262693	2888.19765387343	663.8924031536199	-172.2269416808841	2876.2802121346217	659.1595857103533	-167.18135328681575	2907.419038569063	734.6107577242884	-180.41332121736622	2913.3374376899556	701.2002672261517	-173.86457156521595	2908.4302823083754	679.0824861623876	-167.46565405745156	2898.463869241988	668.1286243655085	-161.50429438606983	2887.4538649419874	663.6142964989314	-156.48993223806443	2911.7050384994964	734.2830401445406	-173.56941637257208	2920.0299219163044	703.3112589782967	-163.4967226847306	2917.285490854431	685.34749561981	-156.72563349264345	2910.589193780084	677.2354829163388	-151.580653104535	2901.166025271661	673.1661852222464	-146.68020328837085	2741.7965701092508	1183.672795674979	-83.44817293229825	2714.3165822768487	1137.1111496033539	2.837714290521121	2847.5010109374352	967.3837089225217	-67.46602512523272	2956.1736324716967	812.6789165936332	-137.12462276826102	2953.3548519970423	809.3458567611623	-161.94592098954442	2972.2418681507816	804.0039043189647	-176.84347294010493	2987.7771411904932	798.0441435156115	-184.70428884121586	3002.766258726619	791.159814593277	-189.1069831164137	2960.215407668119	800.3521972954129	-155.7796623455095	2981.3833406320023	776.0624017134537	-172.50640772751768	3003.7040230960433	762.6813936084166	-181.11321588262274	3018.163688161892	760.0049926249989	-185.54885514235022	3030.525143922075	761.5958285996883	-188.6029048634947	2966.3190104046957	795.2736300647842	-148.2160485715829	2990.2648478429355	768.8340938168611	-160.44051447094654	3015.3673274238213	753.6458317899506	-168.77620314175357	3033.170451640667	750.135230426856	-173.62087601449286	3046.8701906127376	751.7389847073501	-176.71619514421562	2970.0337475178817	792.2502240265504	-142.46321041832155	2994.551074199661	765.7689664641996	-148.47666293373484	3017.1560499042107	751.9732109369811	-154.64323327196252	3034.713894010582	748.2908430605403	-158.73275083663216	3047.7776932483885	749.6584666620521	-161.36659587079646	2974.1531734421087	789.9044337992559	-135.2087550057215	2998.994557899735	763.9766190489673	-136.31669360044182	3018.1212515112293	752.1754400768895	-139.51397306040226	3031.4240669639826	749.1247520238434	-141.65485517738628	3043.2819553522654	750.1263188461538	-143.50342059637458
4	0.025	3081.203	893.81699	129.612	3147.5260285285203	888.7508201866829	75.3169426128832	3062.3752933693477	489.13492116667084	-15.056120428033754	3045.176664018625	106.89137392206533	-67.90954158314496	2936.9495933450307	29.445655601353984	67.42155044153218	3029.719965230614	874.0272598640925	197.2788702871517	2930.327077800647	480.684840299318	300.8110870938274	2832.176543088298	65.75464984039233	406.9547138508826	2685.0318929855653	-0.6161005226410423	306.49262876303015	3014.933837263764	1009.6337653602595	79.13853981162843	2952.0439937226774	1066.3990852110674	32.26716363649142	2882.397820978147	1118.6436715976326	-18.534323933931137	2810.0773557656335	1157.032515327559	-69.86100666126488	2732.0362362456726	1199.8408883365748	-122.46825018245181	2658.1605562707887	1236.6809688887952	-167.354905701198	2519.7637199884566	1315.4926346512016	-174.73410774702762	2773.731403284311	1186.2627146582738	-126.03685409063947	2818.063450057792	1164.6448120571315	-209.63576514098668	2850.635295105076	947.0650855794376	-189.14379379831925	2904.1026739407075	761.3218079449668	-186.22501500209907	2893.3179063160096	749.2190448841511	-204.75663854205817	2877.297157709286	732.035492123734	-205.86992375934437	2868.3747235612577	718.4031010486698	-203.91111882020013	2862.8479477205374	705.6133502678571	-199.93920635632375	2901.480456464892	741.8386981564236	-197.79803429356318	2900.812927688226	707.177512696969	-200.39703660418903	2894.2468116487344	684.6518053280305	-196.10487214013966	2885.0471613941254	675.5696137748761	-192.1131763951676	2873.980710059283	671.3723502614793	-187.91667405389126	2907.290903820599	738.590313698527	-189.9813013787469	2909.784427875145	703.0253261376697	-188.28995417707878	2903.3807120817382	678.1311022835316	-182.55889772064612	2892.6469464729394	667.0230153497134	-177.24042005436323	2880.71581143008	662.3571615216146	-172.40432664867578	2911.489447552914	737.1458432407853	-184.43704857777647	2917.5923966844925	703.9191858151156	-178.23891226191614	2912.7841645718877	681.9565726647149	-172.17527292994188	2902.8412340033215	671.1013739307081	-166.4777765926312	2891.8175438329745	666.647690832955	-161.66175258835773	2915.745757854114	736.75288684737	-177.620419057147	2924.223589375962	705.9101211774681	-167.88356642450796	2921.5525379598116	688.0554345874878	-161.38785699803265	2914.8705488167534	680.0080464118616	-156.43867874504647	2905.433633932776	675.9882456873858	-151.7158459064226	2741.8638621419145	1183.5853493711143	-83.72291125671713	2713.796523586505	1136.1001010513032	2.1109748533245734	2848.1269410662762	967.5915099061441	-69.22331595011762	2958.5383812307773	814.2639143212899	-139.86039995210606	2956.0259796461983	811.2503348992726	-164.63831383362435	2975.180580779563	806.1264989119755	-179.31525310654217	2990.8967769702545	800.2999662344588	-187.04610937398354	3006.03208183316	793.5107327585929	-191.36071606626646	2962.9028301392045	802.2285861598156	-158.57882704732424	2984.5107564012164	778.2736308441254	-175.3781693625659	3007.096891371424	765.0747755314471	-183.89725923851734	3021.669503059445	762.4729231473892	-188.1775651884709	3034.0893112736467	764.0993632192624	-191.03505255909855	2968.974431009788	797.085170644372	-151.07051043976304	2993.332126296403	770.937165170877	-163.3957350086058	3018.718566396423	755.9379611519884	-171.64259363309287	3036.6552220689327	752.5126428553566	-176.3031677422455	3050.4174784690754	754.1530898828255	-179.18501957893082	2972.6557967541694	794.0078637677002	-145.3564611832289	2997.514624392663	767.742437968929	-151.49848554549703	3020.3606208187357	754.1010809985064	-157.59449650352573	3038.043823575048	750.4954592995174	-161.51008000462826	3051.1647732584074	751.894968589735	-163.94493930182335	2976.7203438004135	791.5866197025773	-138.13221806515196	3001.8428236782647	765.8119017420776	-139.38200838109444	3021.150914576008	754.1172119101328	-142.5329221492293	3034.539553412905	751.1142093209568	-144.5518399704854	3046.4448387008756	752.1392482331606	-146.22695842520173
